# Blender 4.2.9 LTS
# www.blender.org
mtllib CornellBox.mtl
o CornellBox-Original
v -1.010000 0.000000 0.990000
v 1.000000 0.000000 0.990000
v 1.000000 -0.000000 -1.040000
v -0.990000 -0.000000 -1.040000
v -1.020000 1.990000 0.990000
v -1.020000 1.990000 -1.040000
v 1.000000 1.990000 -1.040000
v 1.000000 1.990000 0.990000
v -0.990000 -0.000000 -1.040000
v 1.000000 -0.000000 -1.040000
v 1.000000 1.990000 -1.040000
v -1.020000 1.990000 -1.040000
v 1.000000 -0.000000 -1.040000
v 1.000000 0.000000 0.990000
v 1.000000 1.990000 0.990000
v 1.000000 1.990000 -1.040000
v -1.010000 0.000000 0.990000
v -0.990000 -0.000000 -1.040000
v -1.020000 1.990000 -1.040000
v -1.020000 1.990000 0.990000
v 0.530000 0.600000 0.750000
v 0.700000 0.600000 0.170000
v 0.130000 0.600000 -0.000000
v -0.050000 0.600000 0.570000
v -0.050000 0.000000 0.570000
v -0.050000 0.600000 0.570000
v 0.130000 0.600000 -0.000000
v 0.130000 0.000000 0.000000
v 0.530000 0.000000 0.750000
v 0.530000 0.600000 0.750000
v -0.050000 0.600000 0.570000
v -0.050000 0.000000 0.570000
v 0.700000 0.000000 0.170000
v 0.700000 0.600000 0.170000
v 0.530000 0.600000 0.750000
v 0.530000 0.000000 0.750000
v 0.130000 0.000000 0.000000
v 0.130000 0.600000 -0.000000
v 0.700000 0.600000 0.170000
v 0.700000 0.000000 0.170000
v -0.530000 1.200000 0.090000
v 0.040000 1.200000 -0.090000
v -0.140000 1.200000 -0.670000
v -0.710000 1.200000 -0.490000
v -0.530000 0.000000 0.090000
v -0.530000 1.200000 0.090000
v -0.710000 1.200000 -0.490000
v -0.710000 -0.000000 -0.490000
v -0.710000 -0.000000 -0.490000
v -0.710000 1.200000 -0.490000
v -0.140000 1.200000 -0.670000
v -0.140000 -0.000000 -0.670000
v -0.140000 -0.000000 -0.670000
v -0.140000 1.200000 -0.670000
v 0.040000 1.200000 -0.090000
v 0.040000 -0.000000 -0.090000
v 0.040000 -0.000000 -0.090000
v 0.040000 1.200000 -0.090000
v -0.530000 1.200000 0.090000
v -0.530000 0.000000 0.090000
v -0.240000 1.980000 0.160000
v -0.240000 1.980000 -0.220000
v 0.230000 1.980000 -0.220000
v 0.230000 1.980000 0.160000
vn -0.0000 1.0000 -0.0000
vn -0.0000 -1.0000 -0.0000
vn -0.0000 -0.0000 1.0000
vn -1.0000 -0.0000 -0.0000
vn 1.0000 0.0050 -0.0000
vn -0.9536 -0.0000 -0.3011
vn -0.2964 -0.0000 0.9551
vn 0.9596 -0.0000 0.2813
vn 0.2858 -0.0000 -0.9583
vn -0.9551 -0.0000 0.2964
vn -0.3011 -0.0000 -0.9536
vn 0.9551 -0.0000 -0.2964
vn 0.3011 -0.0000 0.9536
vn 0.9998 0.0151 0.0099
vt 0.338630 0.339716
vt 0.671365 0.000293
vt 0.674709 0.339716
vt 0.000293 0.000293
vt 0.338044 0.339716
vt 0.000293 0.339716
vt 0.666972 0.673037
vt 0.999707 0.340302
vt 0.999707 0.678053
vt 0.915325 0.937534
vt 0.865963 0.887180
vt 0.915325 0.887180
vt 0.691429 0.942909
vt 0.751310 0.881825
vt 0.751310 0.942909
vt 0.434697 0.681907
vt 0.333651 0.781851
vt 0.333651 0.680310
vt 0.000293 0.680327
vt 0.100238 0.780649
vt 0.000293 0.780649
vt 0.535604 0.680310
vt 0.435282 0.781851
vt 0.435282 0.680310
vt 0.636512 0.680310
vt 0.536190 0.781368
vt 0.536190 0.680310
vt 0.200278 0.780649
vt 0.100823 0.680327
vt 0.200278 0.680327
vt 0.675294 0.303063
vt 0.775238 0.202018
vt 0.775238 0.303559
vt 0.675294 0.000293
vt 0.776835 0.200937
vt 0.675294 0.200937
vt 0.666972 0.678638
vt 0.766917 0.879283
vt 0.666972 0.879283
vt 0.878962 0.200937
vt 0.777421 0.000293
vt 0.878962 0.000293
vt 0.759690 0.612232
vt 0.859635 0.812876
vt 0.759690 0.812876
vt 0.200863 0.758913
vt 0.264401 0.680327
vt 0.264401 0.758913
vt 0.338630 0.000293
vt 0.338044 0.000293
vt 0.666972 0.340302
vt 0.865963 0.937534
vt 0.691423 0.881822
vt 0.433595 0.781356
vt 0.100238 0.680327
vt 0.535604 0.781851
vt 0.636512 0.781368
vt 0.100823 0.780649
vt 0.675294 0.201523
vt 0.776835 0.000293
vt 0.766917 0.678638
vt 0.777421 0.200937
vt 0.859635 0.612232
vt 0.200863 0.680327
s 0
usemtl floor
f 2/1/1 4/2/1 1/3/1
f 6/4/2 8/5/2 5/6/2
f 9/7/3 11/8/3 12/9/3
f 14/10/4 16/11/4 13/12/4
f 17/13/5 19/14/5 20/15/5
f 22/16/1 24/17/1 21/18/1
f 26/19/6 28/20/6 25/21/6
f 30/22/7 32/23/7 29/24/7
f 34/25/8 36/26/8 33/27/8
f 38/28/9 40/29/9 37/30/9
f 42/31/1 44/32/1 41/33/1
f 46/34/10 48/35/10 45/36/10
f 50/37/11 52/38/11 49/39/11
f 54/40/12 56/41/12 53/42/12
f 58/43/13 60/44/13 57/45/13
f 62/46/2 64/47/2 61/48/2
f 2/1/1 3/49/1 4/2/1
f 6/4/2 7/50/2 8/5/2
f 9/7/3 10/51/3 11/8/3
f 14/10/4 15/52/4 16/11/4
f 17/13/14 18/53/14 19/14/14
f 22/16/1 23/54/1 24/17/1
f 26/19/6 27/55/6 28/20/6
f 30/22/7 31/56/7 32/23/7
f 34/25/8 35/57/8 36/26/8
f 38/28/9 39/58/9 40/29/9
f 42/31/1 43/59/1 44/32/1
f 46/34/10 47/60/10 48/35/10
f 50/37/11 51/61/11 52/38/11
f 54/40/12 55/62/12 56/41/12
f 58/43/13 59/63/13 60/44/13
f 62/46/2 63/64/2 64/47/2
